
<svg width="400" height="120" viewBox="0 0 400 120" fill="none" xmlns="http://www.w3.org/2000/svg">
    <style>
    .bg { fill: #0d1117; stroke: #30363d; stroke-width: 1; }
    .title { font: 600 14px 'Segoe UI', Ubuntu, Sans-Serif; fill: #58a6ff; }
    .desc { font: 400 12px 'Segoe UI', Ubuntu, Sans-Serif; fill: #8b949e; }
    .stat { font: 400 12px 'Segoe UI', Ubuntu, Sans-Serif; fill: #8b949e; }
    .icon { fill: #8b949e; }
    </style>
    <rect x="0.5" y="0.5" width="399" height="119" rx="6" class="bg"/>
    <text x="16" y="28" class="title">SpawnDev.BlazorJS.SimplePeer</text>
    <text x="16" y="55" class="desc">
        <tspan x="16" dy="0">SimplePeer WebRTC video, voice, and data channels for</tspan><tspan x="16" dy="20">Blazor WebAssembly</tspan>
    </text>
    <g transform="translate(16, 95)">
        <circle cx="6" cy="6" r="6" fill="#178600"/>
        <text x="20" y="10" class="stat">C#</text>
        
        <g transform="translate(44, 0)">
            <path class="icon" d="M8 .25a.75.75 0 01.673.418l1.882 3.815 4.21.612a.75.75 0 01.416 1.279l-3.046 2.97.719 4.192a.75.75 0 01-1.088.791L8 12.347l-3.766 1.98a.75.75 0 01-1.088-.79l.72-4.194L.818 6.374a.75.75 0 01.416-1.28l4.21-.611L7.327.668A.75.75 0 018 .25z" transform="scale(0.8) translate(0,2)"/>
            <text x="18" y="10" class="stat">7</text>
        </g>

        <g transform="translate(81, 0)">
            <path class="icon" d="M5 3.25a.75.75 0 11-1.5 0 .75.75 0 011.5 0zm0 2.122a2.25 2.25 0 10-1.5 0v.878A2.25 2.25 0 005.75 8.5h1.5v2.128a2.251 2.251 0 101.5 0V8.5h1.5a2.25 2.25 0 002.25-2.25v-.878a2.25 2.25 0 10-1.5 0v.878a.75.75 0 01-.75.75h-4.5A.75.75 0 015 6.25v-.878zm3.75 7.378a.75.75 0 11-1.5 0 .75.75 0 011.5 0zm3-8.75a.75.75 0 100-1.5.75.75 0 000 1.5z" transform="scale(0.8) translate(0,2)"/>
            <text x="18" y="10" class="stat">0</text>
        </g>
    </g>
</svg>
